<?xml version="1.0" encoding="utf-8"?>
<!-- Generator: Adobe Illustrator 25.0.1, SVG Export Plug-In . SVG Version: 6.00 Build 0)  -->
<svg version="1.2" baseProfile="tiny" xmlns="http://www.w3.org/2000/svg" xmlns:xlink="http://www.w3.org/1999/xlink" x="0px"
	 y="0px" viewBox="0 0 2048 2048" overflow="visible" xml:space="preserve">
<g>
	<g id="레이어_1">
	</g>
</g>
<g>
	<g>
		<path fill="#FFFFFF" d="M1554.8434,751.0076c0,293.1753-237.6893,530.8435-530.8434,530.8435
			c-293.1823,0-530.8434-237.6682-530.8434-530.8435c0-293.1611,237.6611-530.8293,530.8434-530.8293
			C1317.1541,220.1783,1554.8434,457.8465,1554.8434,751.0076z"/>
		<g>
			<g>
				<g>
					<g>
						<g>
							<g>
								<path fill="#003764" d="M1273.1547,714.0076c-84.436-57.3845-192.5364-34.017-249.3752,52.2626
									c-47.2778,72.1155-118.8348,81.0884-146.3982,81.0884c-90.4077,0-152.0927-63.5483-170.4272-129.2709
									c0,0-0.8963-3.3279-1.131-4.08c-7.2072-27.4728-9.0295-40.5201-9.0295-69.6711
									c0-157.0831,161.2946-332.0668,393.4055-332.0668c237.7926,0,373.8846,181.0161,409.0482,281.6478
									c-0.704-1.8916-1.2766-3.5753-1.8491-5.3495c-67.4629-196.796-254.0504-338.2448-473.8534-338.2448
									c-276.3661,0-500.553,224.0696-500.553,500.6703c0,247.1743,178.2748,458.7291,425.6143,458.7291
									c197.1693,0,329.7328-110.5438,390.4521-262.9679C1372.4476,863.3534,1348.8667,765.4276,1273.1547,714.0076z"/>
							</g>
							<g>
								<path fill="#E4032E" d="M1502.3123,603.6368c-29.3304-98.1732-166.2992-291.3671-412.1132-291.3671
									c-232.1109,0-393.4055,174.9837-393.4055,332.0668c0,29.151,1.8223,42.1983,9.0295,69.6711
									c-3.0169-12.0322-4.5565-24.0078-4.5565-35.7219c0-163.6414,163.8068-276.9952,332.218-276.9952
									c228.0394,0,412.8513,184.8189,412.8513,412.7622c0,178.6819-102.8541,333.4536-252.2197,407.7432v0.1379
									c192.6199-69.7612,330.1682-254.2772,330.1682-470.9402C1524.2844,699.712,1517.4094,654.4842,1502.3123,603.6368z"/>
							</g>
						</g>
					</g>
				</g>
			</g>
		</g>
	</g>
	<g>
		<path fill="#575757" d="M634.0544,1737.8967v-93.4034h40.725v93.4034h129.2701v35.8634H505.1582v-35.8634H634.0544z
			 M526.0807,1524.5597v-35.4896h257.0464v35.4896H670.6704l122.5441,127.7747l-28.7668,22.795l-109.843-115.0737
			l-109.8431,115.0737l-28.7684-22.795l122.5457-127.7747H526.0807z"/>
		<path fill="#575757" d="M1062.5854,1614.9756H890.7242v-133.3824h168.8737v34.0006h-128.524v65.755h131.5116V1614.9756z
			 M900.4362,1641.8732h251.0698v88.9237H940.7874v27.6453h214.4554v32.8792H900.4362v-90.7898h210.7202v-26.8976H900.4362
			V1641.8732z M1151.506,1524.9335h46.7034v39.2313h-46.7034v62.3904h-40.3496v-154.2985h40.3496V1524.9335z"/>
		<path fill="#575757" d="M1255.5315,1534.2765v-34.0007h76.2195v-31.7576h42.965v31.7576h72.481v34.0007h-78.4594l81.4485,82.9421
			l-26.9008,25.0316l-70.2396-72.8549l-69.1195,78.83l-27.6469-25.7793l81.4468-88.1696H1255.5315z M1515.1949,1728.5538
			c0,10.9619-2.243,21.2346-6.726,30.8246c-4.483,9.5835-10.4613,17.9902-17.9318,25.2201
			c-7.724,7.2169-16.7549,12.9449-27.0878,17.184c-10.3392,4.2327-21.2378,6.3522-32.6921,6.3522
			c-11.4592,0-22.4163-2.1195-32.8774-6.3522c-10.4613-4.239-19.5571-9.967-27.2747-17.184
			c-7.4722-7.2299-13.4504-15.6366-17.9333-25.2201c-4.4829-9.59-6.7261-19.8627-6.7261-30.8246
			c0-10.9553,2.2432-21.2931,6.7261-31.0066c4.4829-9.7136,10.4612-18.1788,17.9333-25.4087
			c7.7175-7.2234,16.8134-12.9448,27.2747-17.184c10.4612-4.2327,21.4182-6.3522,32.8774-6.3522
			c11.4543,0,22.3529,2.1195,32.6921,6.3522c10.3329,4.2391,19.3638,9.9606,27.0878,17.184
			c7.4705,7.2299,13.4487,15.6951,17.9318,25.4087C1512.9519,1707.2607,1515.1949,1717.5985,1515.1949,1728.5538z
			 M1475.5914,1728.1768c0-12.1973-4.4829-22.7235-13.4504-31.5658c-8.9658-8.8358-19.557-13.2634-31.7576-13.2634
			c-12.2069,0-22.7316,4.4276-31.569,13.2634c-8.844,8.8423-13.2634,19.3685-13.2634,31.5658
			c0,12.2102,4.4194,22.6714,13.2634,31.3837c8.8374,8.7189,19.3621,13.0814,31.569,13.0814
			c12.2006,0,22.7917-4.3625,31.7576-13.0814C1471.1085,1750.8481,1475.5914,1740.387,1475.5914,1728.1768z M1502.4906,1654.2069
			v-73.9764h-56.7891v-34.7451h56.7891v-73.2286h40.3512v181.9502H1502.4906z"/>
	</g>
</g>
</svg>
